# xmcd CD database file
#
# Track frame offsets:
#	150
#	8765
#	29273
#	44120
#	56542
#	80930
#	88260
#	111487
#	140997
#	154965
#	184590
#	204006
#
# Disc length: 3234 seconds
#
# Revision: 2
# Processed by: cddbd v1.4PL0 Copyright (c) Steve Scherf et al.
# Submitted via: CDex 1.50Beta7
#
DISCID=ac0ca00c
DTITLE=Kongar-ol Ondar and Paul "Earthquake" Pena - Genghis Blues
DYEAR=1900
DGENRE=Blues
TTITLE0=What You Talkin' About?
TTITLE1=Traz D'orizao (Beyond the Horizon)
TTITLE2=Terraplane Blues
TTITLE3=Alash Khem (The Alash River)
TTITLE4=Ondarnyng Ayany (Medley in the style of Ondar)
TTITLE5=Durgen Chugaa (Fast Talk)
TTITLE6=Kaldak-Hamar (The Other Side of the Mountain)
TTITLE7=Konggurey (Where Has My Homeland Gone?)
TTITLE8=Eki A'ttar (Good Horses)
TTITLE9=Sunexin Yry (Soul's Song)
TTITLE10=Kargyraa Moan
TTITLE11=Tuva Farewell
EXTD=
EXTT0=
EXTT1=
EXTT2=
EXTT3=
EXTT4=
EXTT5=
EXTT6=
EXTT7=
EXTT8=
EXTT9=
EXTT10=
EXTT11=
PLAYORDER=
